<?xml version="1.0" standalone="no"?>
<!DOCTYPE svg PUBLIC "-//W3C//DTD SVG 20010904//EN"
 "http://www.w3.org/TR/2001/REC-SVG-20010904/DTD/svg10.dtd">
<svg version="1.0" xmlns="http://www.w3.org/2000/svg"
 width="2000.000000pt" height="2000.000000pt" viewBox="0 0 2000.000000 2000.000000"
 preserveAspectRatio="xMidYMid meet">
<metadata>
Created by potrace 1.16, written by Peter Selinger 2001-2019
</metadata>
<g transform="translate(0.000000,2000.000000) scale(0.100000,-0.100000)"
fill="#000000" stroke="none">
<path d="M2820 13201 c-51 -13 -244 -120 -875 -485 -445 -257 -1003 -579
-1239 -715 -471 -270 -531 -313 -583 -419 l-28 -57 0 -1525 0 -1525 27 -55
c52 -107 95 -136 613 -436 477 -275 585 -338 1536 -887 438 -253 505 -289 570
-304 89 -20 179 -8 261 33 28 14 504 287 1057 607 553 319 1103 636 1221 704
242 139 301 189 347 287 l28 61 0 1515 0 1515 -33 67 c-50 103 -101 141 -468
352 -342 198 -408 235 -1459 843 -717 415 -720 416 -793 432 -70 15 -104 13
-182 -8z m-28 -1371 c21 -6 124 -62 230 -124 155 -91 199 -122 223 -156 l30
-42 3 -1594 2 -1594 55 0 55 0 0 643 c0 603 2 644 19 683 25 56 69 88 218 164
121 61 132 65 198 65 66 0 79 -4 225 -72 85 -40 169 -83 186 -97 66 -52 64
-26 64 -740 l0 -646 110 0 110 0 0 105 0 105 -55 27 -55 27 0 68 c0 37 2 68 5
68 3 0 28 -11 55 -25 l50 -25 0 100 0 100 -55 27 -55 27 0 68 c0 37 2 68 5 68
3 0 28 -11 55 -25 l50 -25 0 100 0 100 -55 27 -55 27 0 68 c0 37 2 68 5 68 3
0 28 -11 55 -25 l50 -25 0 100 0 100 -53 26 -54 26 -14 78 -14 78 68 -34 68
-35 -3 101 -3 101 -190 101 c-104 55 -195 102 -202 105 -9 4 -13 -23 -15 -100
l-3 -105 -90 41 c-121 55 -229 62 -328 22 -17 -7 -17 23 -15 651 l3 659 28 57
c23 46 52 78 147 162 127 112 169 134 234 122 50 -9 454 -211 489 -244 16 -15
37 -44 48 -64 18 -36 19 -80 19 -1508 l0 -1470 44 0 c35 0 48 -5 60 -22 21
-30 20 -54 -4 -78 -20 -20 -33 -20 -1800 -20 -1767 0 -1780 0 -1800 20 -24 24
-25 48 -4 78 12 17 25 22 60 22 l44 0 0 1178 0 1177 24 50 c13 28 48 73 77
101 136 128 409 365 433 374 67 25 114 13 271 -68 127 -66 154 -83 180 -120
l30 -44 3 -1324 2 -1324 55 0 55 0 2 1593 3 1592 27 50 c18 35 61 82 138 150
133 118 134 119 210 134 3 0 22 -4 42 -9z"/>
<path d="M2830 11563 l1 -108 164 -92 165 -91 0 93 c0 83 -3 97 -22 119 -19
21 -288 186 -303 186 -3 0 -5 -48 -5 -107z"/>
<path d="M4110 11362 l0 -97 203 -107 202 -107 3 90 c2 50 -2 98 -8 109 -6 12
-90 60 -200 115 -105 52 -192 95 -195 95 -3 0 -5 -44 -5 -98z"/>
<path d="M2830 11214 l1 -99 165 -92 165 -91 -3 100 -3 101 -150 84 c-82 47
-156 87 -162 90 -10 4 -13 -18 -13 -93z"/>
<path d="M4110 11023 l0 -98 48 -26 c26 -14 118 -63 205 -108 l158 -83 -3 102
-3 101 -195 104 c-107 57 -198 104 -202 105 -5 0 -8 -44 -8 -97z"/>
<path d="M1580 10875 c-102 -90 -193 -180 -203 -199 -14 -26 -17 -52 -15 -115
l3 -82 203 172 202 172 0 109 c0 59 -1 108 -2 108 -2 0 -86 -75 -188 -165z"/>
<path d="M2830 10874 l1 -99 165 -92 165 -91 -3 100 -3 101 -150 84 c-82 47
-156 87 -162 90 -10 4 -13 -18 -13 -93z"/>
<path d="M4110 10684 l0 -99 48 -26 c26 -14 118 -63 205 -108 l158 -83 -3 102
-3 101 -190 101 c-104 55 -196 103 -202 105 -10 4 -13 -19 -13 -93z"/>
<path d="M1563 10487 l-202 -172 -1 -103 0 -103 29 23 c16 13 108 90 205 173
l176 150 0 102 c0 57 -1 103 -2 102 -2 0 -94 -78 -205 -172z"/>
<path d="M2830 10534 l0 -99 166 -92 165 -92 -3 101 -3 101 -150 84 c-82 47
-156 87 -162 90 -10 4 -13 -19 -13 -93z"/>
<path d="M4110 10344 l0 -99 48 -26 c26 -14 118 -63 205 -108 l158 -83 -3 102
-3 101 -190 101 c-104 55 -196 103 -202 105 -10 4 -13 -19 -13 -93z"/>
<path d="M1563 10117 l-203 -172 0 -103 0 -103 34 28 c18 15 111 93 205 173
l171 145 0 103 c0 56 -1 102 -2 102 -2 -1 -94 -78 -205 -173z"/>
<path d="M2830 10194 l0 -99 166 -92 165 -92 -3 101 -3 101 -150 84 c-82 47
-156 87 -162 90 -10 4 -13 -19 -13 -93z"/>
<path d="M2830 9853 l0 -98 165 -92 165 -92 0 99 0 99 -160 90 c-88 50 -162
91 -165 91 -3 0 -5 -44 -5 -97z"/>
<path d="M1563 9748 l-203 -172 0 -104 0 -103 78 66 c42 37 134 115 204 173
l127 107 0 103 c1 56 0 102 -1 102 -2 0 -94 -78 -205 -172z"/>
<path d="M3646 9680 c-62 -33 -115 -69 -122 -82 -11 -18 -13 -158 -14 -650 l0
-628 125 0 125 0 0 710 c0 391 -1 710 -2 709 -2 0 -52 -27 -112 -59z"/>
<path d="M2830 9513 l0 -98 165 -92 165 -92 0 99 0 99 -160 90 c-88 50 -162
91 -165 91 -3 0 -5 -44 -5 -97z"/>
<path d="M1562 9379 l-202 -172 0 -99 c0 -55 4 -98 9 -96 5 2 97 78 205 171
l196 167 0 100 c0 55 -1 100 -3 100 -2 0 -94 -77 -205 -171z"/>
<path d="M2830 9173 l0 -98 165 -92 165 -92 0 99 0 99 -160 90 c-88 50 -162
91 -165 91 -3 0 -5 -44 -5 -97z"/>
<path d="M1561 9009 l-201 -170 0 -100 c0 -78 3 -98 13 -93 6 4 99 81 205 172
l192 163 0 100 c0 54 -2 99 -4 99 -2 0 -95 -77 -205 -171z"/>
<path d="M2830 8833 l0 -98 165 -92 165 -92 0 99 0 99 -160 90 c-88 50 -162
91 -165 91 -3 0 -5 -44 -5 -97z"/>
<path d="M1560 8641 l-195 -167 -3 -77 c-3 -77 -3 -77 23 -77 18 0 76 43 205
152 l180 153 0 92 c0 51 -3 93 -7 92 -5 0 -96 -76 -203 -168z"/>
<path d="M2830 8455 l0 -135 165 0 165 0 0 44 0 45 -160 90 c-88 50 -162 91
-165 91 -3 0 -5 -61 -5 -135z"/>
<path d="M7720 11830 c-153 -22 -230 -48 -349 -119 -152 -91 -257 -203 -356
-376 -54 -95 -109 -257 -126 -375 -26 -179 6 -435 77 -613 121 -305 322 -499
589 -567 91 -23 313 -28 439 -9 120 18 110 -27 114 528 3 409 1 479 -11 496
-15 19 -29 20 -261 23 -303 4 -286 12 -286 -141 0 -135 5 -142 107 -151 42 -3
82 -11 88 -17 9 -9 27 -385 18 -401 -2 -4 -41 -5 -86 -2 -103 6 -169 36 -230
104 -88 98 -155 285 -179 497 -33 290 77 581 266 707 98 65 214 80 391 51 50
-8 107 -15 128 -15 l37 0 0 155 c0 151 -1 157 -24 180 -13 13 -41 28 -62 34
-56 16 -208 21 -284 11z"/>
<path d="M17243 11833 c-55 -11 -53 37 -53 -1055 l0 -1007 21 -11 c13 -7 72
-10 165 -8 115 2 147 6 154 18 6 9 10 167 10 377 0 199 3 368 6 377 15 39 20
29 249 -449 26 -55 68 -147 92 -205 24 -57 49 -108 56 -112 7 -4 89 -8 183 -8
199 0 210 4 200 67 -4 22 -93 211 -198 419 -105 209 -194 389 -199 401 -7 19
-2 28 29 55 119 105 217 229 245 310 34 99 37 119 37 225 0 157 -27 256 -103
374 -62 98 -143 161 -282 219 -21 9 -111 14 -310 15 -154 2 -290 1 -302 -2z
m486 -370 c53 -24 82 -54 112 -118 60 -124 27 -322 -65 -403 -42 -36 -138 -74
-180 -70 -54 5 -57 24 -54 308 3 271 7 294 53 303 31 7 96 -3 134 -20z"/>
<path d="M18633 11816 l-28 -24 -3 -989 c-2 -700 1 -996 9 -1015 6 -14 20 -29
32 -32 44 -12 293 -6 310 7 35 25 46 466 21 825 -6 75 -4 92 7 92 8 0 21 -12
30 -28 9 -15 41 -70 72 -123 30 -53 79 -138 107 -190 29 -52 64 -114 78 -139
14 -25 36 -65 50 -90 13 -25 27 -49 32 -55 4 -5 22 -37 40 -70 18 -33 57 -96
85 -141 62 -96 57 -94 251 -94 160 0 184 7 184 53 0 18 -6 41 -14 52 -7 11
-45 76 -83 145 -69 123 -81 144 -138 245 -126 223 -257 461 -305 553 -43 82
-20 145 167 462 44 74 99 165 121 203 23 37 42 70 42 73 0 3 8 18 19 32 36 51
111 205 111 228 0 13 -9 28 -19 34 -21 11 -285 12 -336 1 -34 -7 -59 -41 -135
-186 -28 -55 -55 -104 -59 -110 -5 -5 -26 -44 -48 -85 -22 -41 -52 -95 -65
-120 -14 -25 -41 -74 -60 -110 -69 -127 -91 -165 -115 -200 l-24 -35 5 155
c13 338 17 656 8 668 -15 22 -79 32 -204 32 -109 0 -119 -2 -145 -24z"/>
<path d="M15347 10795 c-284 -569 -517 -1037 -517 -1040 0 -3 468 -5 1040 -5
572 0 1040 2 1040 5 0 10 -1035 2075 -1040 2075 -3 0 -238 -466 -523 -1035z
m816 60 l287 -575 -385 0 -385 0 42 85 42 85 208 0 208 0 -152 305 c-84 168
-155 305 -158 305 -5 0 -480 -945 -480 -955 0 -3 259 -5 575 -5 l575 0 40 -80
c22 -44 40 -82 40 -85 0 -3 -337 -5 -750 -5 -412 0 -750 2 -750 5 0 10 745
1495 750 1495 3 0 134 -259 293 -575z"/>
<path d="M11394 11813 c-109 -7 -98 98 -104 -1012 -3 -531 -4 -971 -2 -978 9
-28 67 -38 227 -37 365 2 603 67 741 202 105 102 214 304 249 463 25 113 32
494 11 621 -28 172 -82 315 -166 438 -55 81 -174 189 -255 232 -117 61 -162
69 -415 72 -124 2 -253 1 -286 -1z m456 -359 c98 -31 144 -68 202 -165 66
-112 88 -198 100 -397 21 -321 -24 -505 -164 -657 -65 -72 -137 -107 -231
-112 -119 -8 -108 -80 -108 681 0 535 2 661 13 667 25 16 107 9 188 -17z"/>
<path d="M8990 11794 c-83 -18 -229 -89 -302 -148 -170 -136 -265 -332 -298
-618 -18 -150 -8 -433 20 -561 65 -306 158 -465 339 -585 277 -182 558 -167
831 45 137 106 225 277 281 543 27 132 37 410 19 560 -40 351 -183 577 -445
705 -146 72 -295 91 -445 59z m265 -305 c28 -13 77 -50 111 -84 74 -73 123
-169 161 -310 24 -92 26 -117 27 -305 1 -139 -3 -223 -12 -260 -45 -183 -106
-304 -183 -359 -134 -98 -314 -98 -448 0 -85 61 -149 197 -187 395 -22 118
-15 376 15 513 70 325 302 510 516 410z"/>
<path d="M10182 11794 l-22 -15 1 -672 c1 -370 5 -823 8 -1007 l6 -335 407 1
c313 1 411 4 423 14 12 10 15 40 15 156 0 200 19 186 -261 183 -120 -1 -222 1
-227 5 -4 4 -7 373 -7 819 0 679 -2 816 -14 840 l-14 27 -146 0 c-116 0 -151
-3 -169 -16z"/>
<path d="M13102 11803 c-80 -5 -86 -14 -101 -158 -25 -235 -83 -751 -136
-1210 -31 -264 -59 -516 -62 -561 -8 -112 -5 -114 183 -114 101 0 144 4 151
13 6 6 20 104 32 217 23 219 75 596 89 645 5 17 13 29 18 28 18 -3 64 -155
144 -474 45 -178 85 -341 91 -361 17 -65 25 -68 173 -68 96 0 137 4 144 13 6
7 20 60 32 117 64 313 184 780 201 780 19 0 43 -139 98 -576 22 -172 44 -310
51 -319 10 -12 41 -15 160 -15 128 0 151 2 170 18 l23 18 -26 145 c-72 404
-136 892 -202 1534 -14 143 -30 277 -36 298 l-10 37 -153 0 c-135 0 -155 -2
-169 -18 -11 -12 -39 -124 -77 -308 -95 -454 -154 -690 -194 -779 l-23 -50
-21 41 c-45 87 -144 462 -237 888 -31 146 -48 203 -61 213 -17 13 -95 14 -252
6z"/>
<path d="M7040 9184 c-30 -2 -79 -6 -107 -10 l-53 -5 0 -504 0 -504 38 -8 c20
-4 111 -8 202 -8 131 1 178 4 230 19 238 69 340 218 340 496 0 280 -113 445
-343 504 -62 16 -216 26 -307 20z m249 -200 c56 -19 112 -68 141 -125 46 -89
50 -273 8 -374 -50 -119 -132 -161 -308 -156 l-35 1 0 335 0 335 71 0 c40 0
95 -7 123 -16z"/>
<path d="M8010 9184 c-25 -2 -69 -6 -97 -10 l-53 -5 0 -503 0 -503 31 -7 c17
-3 53 -6 79 -6 26 0 62 3 79 6 l31 7 0 424 0 425 53 -4 c70 -6 125 -35 149
-78 22 -42 24 -120 4 -159 -20 -37 -78 -87 -133 -114 -29 -14 -43 -27 -40 -37
3 -8 61 -114 129 -235 116 -204 127 -220 159 -228 35 -9 184 -5 195 6 3 3 -48
99 -114 213 l-120 208 38 27 c79 57 122 149 123 258 1 196 -130 303 -383 315
-47 2 -105 2 -130 0z"/>
<path d="M9703 9174 c-25 -6 -7 46 -228 -654 -97 -307 -110 -356 -96 -362 23
-10 164 -9 179 1 8 4 26 50 41 102 l27 94 162 3 161 2 14 -47 c8 -27 20 -72
27 -100 13 -48 17 -53 47 -59 36 -7 179 -2 187 7 5 5 -301 998 -311 1009 -5 6
-183 9 -210 4z m142 -434 c25 -91 48 -173 51 -182 5 -16 -5 -18 -105 -18 -61
0 -111 2 -111 6 0 7 99 345 106 364 8 19 5 27 59 -170z"/>
<path d="M10388 9173 c-26 -4 -28 -8 -28 -51 -1 -26 -9 -252 -19 -502 -14
-339 -16 -457 -7 -462 15 -10 148 -10 163 0 11 7 18 147 33 657 0 6 41 -91 90
-215 60 -151 95 -227 107 -231 22 -9 100 -11 129 -3 16 4 39 47 99 187 43 100
86 197 95 216 l17 34 6 -74 c4 -41 9 -183 13 -317 7 -228 8 -244 27 -253 19
-11 170 -9 181 2 6 6 -40 999 -47 1006 -10 9 -117 15 -158 9 l-44 -7 -94 -227
c-51 -125 -104 -251 -116 -281 -19 -47 -24 -52 -32 -35 -5 10 -56 137 -113
280 l-104 262 -35 6 c-38 6 -118 6 -163 -1z"/>
<path d="M11803 9173 l-23 -4 0 -505 0 -504 279 0 278 0 5 45 c3 25 3 65 0 90
l-5 45 -173 0 -174 0 0 414 0 414 -31 6 c-34 6 -120 6 -156 -1z"/>
<path d="M12493 9173 l-23 -4 0 -504 c0 -449 2 -504 16 -509 20 -8 158 -8 178
0 14 5 16 60 16 509 l0 503 -31 6 c-34 6 -120 6 -156 -1z"/>
<path d="M8710 8665 l0 -505 293 2 292 3 0 85 0 85 -187 3 -188 2 0 130 0 130
144 0 144 0 6 45 c4 25 4 65 0 90 l-6 45 -144 0 -144 0 0 105 0 105 183 2 182
3 0 85 0 85 -287 3 -288 2 0 -505z"/>
<path d="M12870 8666 c0 -450 2 -505 16 -510 9 -3 49 -6 89 -6 40 0 80 3 89 6
14 5 16 34 16 215 l0 209 144 0 c164 0 156 -5 156 90 0 95 8 90 -156 90 l-144
0 0 115 0 115 184 0 183 0 6 48 c3 27 3 67 0 90 l-6 42 -288 0 -289 0 0 -504z"/>
<path d="M13580 8665 l0 -505 295 0 296 0 -3 88 -3 87 -187 3 -188 2 0 130 0
130 144 0 144 0 7 40 c4 22 4 63 0 90 l-7 50 -144 0 -144 0 0 105 0 105 185 0
186 0 -3 88 -3 87 -287 3 -288 2 0 -505z"/>
</g>
</svg>
